<?xml version="1.0" encoding="utf-8"?>
<!-- Generator: Adobe Illustrator 26.3.1, SVG Export Plug-In . SVG Version: 6.00 Build 0)  -->
<svg version="1.1" xmlns="http://www.w3.org/2000/svg" xmlns:xlink="http://www.w3.org/1999/xlink" x="0px" y="0px"
	 viewBox="0 0 800 220" style="enable-background:new 0 0 800 220;" xml:space="preserve">
<style type="text/css">
	.st0{enable-background:new    ;}
	.st1{fill:#FFFFFF;}
	.st2{fill:#080808;}
	.st3{opacity:0.44;fill:#FFE73B;enable-background:new    ;}
	.st4{opacity:0.44;fill:#0000FF;enable-background:new    ;}
	.st5{display:none;opacity:0.21;}
	.st6{display:inline;fill:#080808;}
	.st7{display:inline;}
	.st8{display:none;}
	.st9{clip-path:url(#SVGID_00000001631216980239734590000012513627890776089221_);}
	.st10{clip-path:url(#SVGID_00000026862784323858999620000013324988752112056202_);}
	.st11{clip-path:url(#SVGID_00000103977989435120919240000013509219661316421820_);}
	.st12{clip-path:url(#SVGID_00000074406594180579940640000004165521171305834128_);}
	.st13{opacity:0.44;fill:#FF39AF;enable-background:new    ;}
	.st14{clip-path:url(#SVGID_00000080915545138314670950000003293586404476433549_);}
	.st15{clip-path:url(#SVGID_00000045588255141105957120000004577130933026645687_);}
	.st16{clip-path:url(#SVGID_00000119800199038238286910000016186447580241196471_);}
</style>
<g id="レイヤー_1">
</g>
<g id="レイヤー_2">
	<g id="GOODS_EVENT_00000036944830026151044370000017717250004510088861_" transform="translate(-74.575 -7031.565)">
		<g id="グループ_3858_00000183961727620495817420000007214533020581176739_" transform="translate(74.575 7031.565)">
			<g>
				<defs>
					
						<rect id="SVGID_00000173842659096816747370000013059326443118381743_" x="75.62854" y="27.02248" width="488.2709961" height="171.2810059"/>
				</defs>
				<clipPath id="SVGID_00000049919147911467351150000013074718906734601869_">
					<use xlink:href="#SVGID_00000173842659096816747370000013059326443118381743_"  style="overflow:visible;"/>
				</clipPath>
				
					<g id="グループ_3858-2_00000053533646482102506350000002685471097577289875_" style="clip-path:url(#SVGID_00000049919147911467351150000013074718906734601869_);">
					<path id="パス_4964_00000171680221913080504420000011656269430147484849_" class="st2" d="M286.450531,34.9124794
						C286.6395264,34.2514801,286.6435242,34.0624809,286.450531,34.9124794"/>
					<path id="パス_4965_00000019651841837179291500000010521509170942126469_" class="st2" d="M507.62854,151.477478
						c-3.3770142,0.3310089-6.7579956,0.6620026-9.7650146-0.9759979c-0.0610046-0.0549927-0.1270142-0.0999908-0.1879883-0.1549988
						c0.4161987-0.1397858,0.8227539-0.3068237,1.2170105-0.5c2.5799866-4.4929962-1.2170105-6.6689911-5.4559937-8.6809998
						c-0.5498962-0.3975525-1.0335388-0.8795013-1.4330139-1.4279938c-0.6850281-0.4221497-1.4661865-0.6630402-2.269989-0.6999969
						c-1.9079895-0.3050079-2.4710083-1.6950073-3.8450012-2.4369965c-2.0230103-1.0130005-3.7609863-2.1569977-3.5289917-4.1999969
						c0.6570129-5.8160019,18.5-16.1409988,11.92099-17.1159973c-3.95401,0.1620026,7.7269897-5.6230011,3.8519897-6.4680023
						c-5.1716614-1.2781754-10.5147095-1.7194366-15.8259888-1.3069992
						c-3.7369995,0.3710022,17.2000122-6.7699966,14.6359863-8.7129974l-4.1210022,0.2399979l-3.7120056-0.6699982
						c-1.9196167-0.5588226-3.9398804-0.6814804-5.9129944-0.3590012c-1.9267273,0.290062-3.8915405,0.2007141-5.7839966-0.2630005
						c6.8519897-1.2740021-0.2999878-7.2440033,6.9949951-8.3740005c-5.7659912-0.7519989-7.5079956,3.1470032-11.2409973,4.3909988
						c-1.1229858,0.3730011-2.4559937,1.0999985-3.6730042,1.5619965c-0.9465332-0.8928604-1.6220398-2.0345535-1.9490051-3.2939987
						c-0.243988-1.6710052,1.0140076-2.7850037,2.4869995-3.8170013c1-0.7460022,1.3720093-1.9530029,2.7839966-2.3880005
						c0.616333-0.118248,1.1916199-0.3938293,1.6700134-0.8000031c0.2738953-0.4867249,0.6175232-0.9307632,1.019989-1.3180008
						c3.0880127-2.0759964,5.8460083-4.2419968,3.7630005-7.7109985c-0.2998657-0.1244507-0.6091614-0.2247696-0.9249878-0.2999954
						c0.04599-0.0460052,0.0910034-0.0999985,0.1350098-0.1460037c3.368988-2.5369949,7.5639954-1.2859955,11.3139954-2.0859985
						c-0.3510132-2.5999985-2.4700012-3.3600006-5.4849854-3.512001c-0.4618835-0.0101547-0.9239807,0.0062027-1.3840027,0.0490036
						c-1.8590088,0.1339951-3.8710022,0.2669983-2.9559937-2.6110001c0.2619934-0.8190002-1.07901-0.9000015-1.7340088-0.7000046
						c-5.2999878,1.663002-11.1000061,1.2440033-16.3619995,3.0210037c-0.560791,0.0608444-1.0965881,0.2646866-1.5559998,0.5919952
						l-4.6170044,0.2600021c-1.4775391-1.0539627-3.4764404-0.9938507-4.8880005,0.1469955
						c-3.3980408-0.7390213-6.8593445-1.1492462-10.3359985-1.2249985l0.2630005-0.4589996
						c1.0626526-0.0719986,2.127655-0.145668,3.1950073-0.2210007c-1.1477356-0.6337738-2.3817139-1.0969696-3.6629944-1.375
						c4.9899902-2.1729965,12.17099-5.2890015,10.6090088-6.4729996c-1.3740234,0.081337-2.7476807,0.1606674-4.1210022,0.237999
						l-3.7130127-0.6710014c-1.9198608-0.5574913-3.9398804-0.6797943-5.9129944-0.3580017
						c-1.9274292,0.2890625-3.8927307,0.1997299-5.7860107-0.2630005c6.8529968-1.2739983-0.2999878-7.2439995,7-8.3740005
						c-5.7650146-0.7529984-7.5079956,3.1459999-11.2409973,4.3899994c-2.2550049,0.75-5.3519897,2.9210014-6.6650085,1.4820023
						s-5.7869873-3.5540009-0.9289856-6.3170013c2.1340027-1.2129974,0.9549866-1.9309998-1.0650024-2.5649986
						c-1.7283936-0.7024651-3.3795166-1.58181-4.927002-2.6240005c-1.0422974-1.5051003-2.637085-2.537384-4.4370117-2.8720055
						l0.053009,2.8689995l-0.1659851,0.0880013c-2.2219849-1.7910004-8.5320129-1.0300026-6.651001-5.382l2.6879883-1.9260025
						c1.3756714-0.1126709,2.6800232-0.6592674,3.7250061-1.560997c1.3188782,0.5032997,2.7920532,0.4035301,4.0310059-0.2730026
						l4.4140015-0.6069984c1.8659973,0.2709999,1.0849915-0.4389992,0.3299866-1.1469994
						c-0.8940125-0.8409996-1.75-1.6809998,1.8500061-0.9000015c1.7554626,0.3075294,3.5559387-0.1936646,4.8999939-1.3639984
						c2.5499878-0.6290016,6.9599915,0.3509979,7.2170105-2.2000008c0.2999878-3.0249996-43.9339905,9.730999-47.0820007,9.7599983
						c-1.6584167,0.1383705-3.3136597-0.3011436-4.6849976-1.2439995c-0.0226746-0.0244408-0.0316467-0.0585632-0.0239868-0.0909996
						c0.7869873-2.6139984-2.9379883-1.6699982-4.2179871-2.6539993c-2.3999939-2.1259995-5.7709961-1.2550011-8.9590149-1.026001
						c0.0253296-1.0793304,0.0496521-2.1576653,0.072998-3.2350006c-2.4190063,0.1120033-4.8439941,0.1410027-7.2569885,0.3570023
						c-4.7229919,0.4199982-5.9679871-1.4850006-5.8789978-4.3710003c-4.94104-1.6630001-10.2280579-1.0930004-15.5230408-0.4820004
						c-13.3000183,1.3400002-47.2260132,11.4350014-60.2619934,10.2470016
						c-1.8000183-0.163002-3.1530151,1.4139977-4.6380005,2.7469978c-1.6173401-0.1386681-3.2363281-0.2680016-4.8569946-0.3880005
						c-1.5190125-1.8520012-3.3560181-4.2779999-3.8609924-4.3069992c0.0769958-0.4280014,0.1409912-0.7550011,0.1900024-1
						c-0.322998,1.2539978-1.2210083,4.125-2.6300049,4.9119987l-0.2870178-0.0130005
						c-8.9189911-0.4169998-17.7159882-1.5049973-26.5679932-2.2899971c-1.86026-0.0333481-3.7160034-0.1950684-5.5540009-0.4840012
						c-2.536087-0.451313-5.120163-0.5703163-7.6869965-0.3540001l-32.7950134-5.9709988
						c-16.5650024-2.0760002-32.7580109-1.6100006-47.9140015,5.9110012
						c-0.7120056,0.5599976-1.4150085,1.1169968-2.1459961,1.6919975c-4.2799988,2.0279999-7.8230133,4.439003-8.6230011,8.2680016
						c-2.7180023,1.1119995-4.0650024,2.7940025-4.2820053,4.9470024c-6.5449982,5.993-15.6180038,5.9179993-18.1860046,13.3239975
						c-4.3999939,3.6650009-9.246994,7.0790024-12.621994,11.3150024c0.6790009,0.0189972,1.3999939,0,2.1119995-0.0100021
						c3.6819992-0.0739975,7.3639984-0.1489944,5.9829941,4.4160004c-2.8314514,1.2146454-5.551445,2.6741867-8.1289978,4.3619995
						l-0.1940002,0.0130005c-0.6999969,0.3410034-1.4209976,0.6640015-2.0999985,1.0330048
						c-3.2269974,1.7480011-4.538002,3.2319946-4.0230026,4.8479996l-0.1289978,0.1800003
						c-1.1539993-0.0149994-1.8779984-0.0579987-2.3059998-0.0999985c0.5,0.1940002,1.0370026,0.6920013,0.1330032,1.8180008
						c-0.038002,0,1.8379974,0.2809982,4.435997,0.6669998c0.0866699,0.0666656,0.1763306,0.1366653,0.2689972,0.2099991
						c-1.1649933,2-2.8919983,3.9520035-3.9419937,4.2050018c2.447998,1.8559952-14.2580032,3.1839905-11.3330002,3.1279907
						c0.6897049,0.0417252,1.3818207-0.0162048,2.0550003-0.1719971c0.661293,0.1408234,1.3372269,0.2009277,2.0130005,0.1790009
						c3.2139969,3.1650009,9.7409973,1.0559998,13.2419968,3.7649994c-0.8799973,0.487999-2.5279999,1.0319977-2.5079956,1.4550018
						c0.1999969,4.4110031-4.4120026,5.3779984-9.5,6.2220001c3.0629959,2.6800003,3.6149979,5.4469986,3.9729996,8.2649994
						l4.4549942,2.6999969c0.3420639,0.0312881,0.6799088,0.09832,1.0080032,0.1999969
						c4.0449982,1.7659988-2.6819992,4.288002,0.4250031,6.6449966c1.0080185,0.7057495,1.7957077,1.6823883,2.2719955,2.8170013
						c-0.2083893,0.0517883-0.4137115,0.1152191-0.6149979,0.1900024c-0.5116425-0.0650024-1.0304565-0.0460968-1.5360031,0.0559998
						c-2.1809998,0.2350006-4.5999985-0.3730011-6.3610001,1.3999939c2.6100006,0.3529968,5.0289993,1.4000092,7.8440018,1.0120087
						l0.2060013,0.0279999c-0.1988983,0.2637787-0.424057,0.5066833-0.6720047,0.7249908
						c-0.3232956,1.340683-1.2134247,2.4746094-2.4389954,3.1070099c-0.1060028,0.4799957-0.1820068,0.9570007-0.3000031,1.4499969
						c-0.7083282-0.3300781-1.5244827-0.3391876-2.2399979-0.0250092c-2.8769989,2.4230042,5.9799957,7.7369995,5.9799957,7.7369995
						s-12.9560013,2.2140045-5.9799957,4.7440033c0.9309998,0.3370056,11.7339935,2.0839996,12.6899948,2.3889923
						c1.7690048-0.1210022,3.3680038,1.1069946,4.9720001,2.3350067c1.7120056,1.3110046,3.4319992,2.621994,5.375,2.2929993
						c0.5910034,0.1869965,1.0429993,0.3410034,1.3790054,0.4620056c-1.2949982-0.7089996-3.4500046-2.4620056-1.3790054-5.0899963
						c0.0360031-0.0449982,0.0719986-0.0899963,0.1080017-0.1340027c1.8820038,1.5059967,3.9110031,2.8999939,5.8370056,4.3739929
						c2.1729965,5.8829956,6.6930008,10.5200043,11.7850037,14.852005c0.2337494,1.8148346,1.581131,3.2878418,3.3679962,3.6820068
						c0.1130676,0.4850616,0.2832489,0.9550171,0.5070038,1.3999939c-2.3860016,2.0319977-4.7450027,4.0830078-7.2330017,6.0509949
						c-5.3810043,4.2579956-4.8570023,6.7590027,2.1189957,9.2890015c0.9329987,0.3379974,1.909996,0.6179962,2.8669968,0.9179993
						c1.6112061-0.0466919,3.2211151,0.1296539,4.7840118,0.5240021c1.8717804,0.5050049,3.8232422,0.6452026,5.7479858,0.4129944
						c2.0351105,0.6752777,4.161087,1.0370789,6.3050079,1.072998c3.8314819,0.1346588,7.4966736-1.5695496,9.8629913-4.5859985
						c1.7430115-2.2129974,3.7949982-1.9470062,6.1470032-2.3889923c10.6730042-2.0059967,21.348999-1.2420044,32.0169983-1.6950073
						c5.6829987,2.5090027,12.0930023,0.8059998,18.0170135,0.2570038
						c7.7579956-0.7189941,15.8350067-1.1950073,22.8000031-4.9720001c3.3999939-1.845993,8.8809967-2.5540009,11.4859924-1.6840057
						c7.6799927,2.5670013,14.8289795,0.3609924,21.9320068-1.1390076
						c-17.451004-0.2559967-29.6730042-0.7489929-23.5610046-1.4850006
						c4.3593445-0.2546692,8.7193298-0.5123444,13.0799866-0.772995c0-0.5166626-0.0096741-1.0329895-0.0289917-1.548996
						c3.8739929-1.845993,8.1589966-1.9810028,12.4589844-2.2079926
						c10.7000122-0.5630035,21.4060059-1.1360016,32.1000061-1.8630066
						c4.2080078-0.2850037,8.6340027-0.0919952,12.4109802-2.2149963l40.9560242-2.3910065
						c1.4389954,3.1719971,4.5690002,2.8289948,7.7000122,2.4859924c1.1382751-0.1570282,2.2872009-0.2239075,3.4360046-0.1999969
						c0.7237549,0.0280151,1.4485779-0.0000763,2.1679993-0.0839996c15.7489929-1.3730011,31.5409851-1,47.3080139-3.8670044
						c3.3707275-0.4437714,6.784668-0.4501648,10.1570129-0.0189972c2.9952698,0.3328705,6.0144043,0.3961334,9.0209961,0.1889954
						c5.7869873-0.5700073,11.447998-1.1329956,16.1700134-4.1439972c-1.9413452,0.1053314-3.8823547,0.2093353-5.822998,0.3119965
						l-0.1610107-3.0460052c1.5666809-0.1999969,3.1333313-0.4029999,4.7000122-0.6089935l11.6459961,0.5160065
						c1.8464966,0.454422,3.7993469,0.0311432,5.2919922-1.1470032l6.2000122-0.3240051
						c0.6319885,0.2986298,1.3252258,0.44487,2.0239868,0.427002c3.7305298,0.5598297,7.506134,0.7607574,11.2749939,0.6000061
						c3.5767517-0.1419983,7.1590576,0.0252991,10.7070007,0.5c0.8880005,0.1450043,2.6669922-0.1670074,2.2739868-1.1130066
						c-1.7430115-4.1950073,3.0190125-3.326004,5.6440125-3.7510071c4.0090027-0.647995,6.7909851-1.8899994,7.111969-5.071991
						c-1.8137512-0.0801239-3.6310425-0.0048523-5.4319763,0.2249908 M247.901535,42.3014793
						c-15.0130005-0.0229988-10.4369965-0.1719971,1.4609985-0.310997L247.901535,42.3014793z M270.2155151,42.3014793
						c-0.2634888-0.0998268-0.4949951-0.2691574-0.6699829-0.4899979l1.9239807-0.0100021
						C271.0802612,42.0327454,270.6571045,42.2014656,270.2155151,42.3014793 M309.752533,42.3834801
						c-7.9668274,0.3171692-15.9459229,0.1016884-23.8840027-0.6450005
						c2.2579956-0.0050011,4.4609985-0.0079994,6.5780029-0.0079994
						C308.3755188,41.7304802,319.2925415,41.89048,309.752533,42.3834801"/>
					<path id="パス_4967_00000138539160676523475750000006774964261013991051_" class="st2" d="M286.444519,34.9324799
						L286.444519,34.9324799l0.0050049-0.0239983l-0.0050049,0.0200005"/>
					<path id="パス_4968_00000047760769660622044820000013348881398576800145_" class="st2" d="M87.6595383,90.9364853
						C87.1265411,90.7504807,86.6395416,90.8444824,87.6595383,90.9364853"/>
					<path id="パス_4969_00000085219466797847125160000011164906493691148453_" class="st2" d="M115.9145355,160.9434814
						l0.0190048,0.0059967l-0.0190048-0.0070038V160.9434814z"/>
					<path id="パス_4970_00000041288928509824686410000007484010264348037810_" class="st2" d="M310.200531,182.2364807
						l5.3059998-2.9250031c-6.4519958,0.4109955-12.8259888,1.1730042-19.2359924,1.9519958
						c-1.6740112,0.2050018-3.3450012,0.4880066-5.0180054,0.8049927c5.9159851,0.0769958,12.3639832,0.1329956,18.946991,0.1670074
						l-1.1940002,0.6580048c3.9049377,0.5463409,7.8440857,0.8116913,11.7870178,0.7940063
						c6.822113-0.1116791,13.6338806-0.5763092,20.4079895-1.3919983l0.6520081-0.0679932
						c-9.6889954,0.0610046-20.8520203,0.0639954-31.6520081,0.0090027"/>
					<path id="パス_4971_00000130636744462968652630000003219464641804355221_" class="st2" d="M367.9405518,181.1754761
						L367.9405518,181.1754761c-8.6140137-0.7299957-17.2890015,0.1430054-26.0889893,1.052002
						c19.3710022-0.1199951,32.8890076-0.4730072,26.0889893-1.0509949"/>
					<path id="パス_4972_00000044877021699565239980000009314353994673255312_" class="st2" d="M115.9335403,160.9494781
						c0.2835236,0.1504517,0.5835266,0.2675781,0.8939972,0.348999
						C116.8875427,161.2984772,116.6505432,161.1834717,115.9335403,160.9494781"/>
				</g>
			</g>
		</g>
		<g id="グループ_5936_00000182494055276321345440000005414989364157253566_" transform="translate(274.575 7031.565)">
			<g>
				<defs>
					
						<rect id="SVGID_00000099656406937812052410000014065984966373137536_" x="75.62854" y="27.02248" width="488.2709961" height="171.2810059"/>
				</defs>
				<clipPath id="SVGID_00000045595142600011559540000003009238533498281862_">
					<use xlink:href="#SVGID_00000099656406937812052410000014065984966373137536_"  style="overflow:visible;"/>
				</clipPath>
				
					<g id="グループ_3858-3_00000059282726161084222860000014458001779457644985_" style="clip-path:url(#SVGID_00000045595142600011559540000003009238533498281862_);">
					<path id="パス_4964-2_00000035504698165560082570000011662422939025761699_" class="st2" d="M286.450531,34.9124794
						C286.6395264,34.2514801,286.6435242,34.0624809,286.450531,34.9124794"/>
					<path id="パス_4965-2_00000170977372627354678910000004591986939951221387_" class="st2" d="M507.62854,151.477478
						c-3.3770142,0.3310089-6.7579956,0.6620026-9.7650146-0.9759979c-0.0610046-0.0549927-0.1270142-0.0999908-0.1879883-0.1549988
						c0.4161987-0.1397858,0.8227539-0.3068237,1.2170105-0.5c2.5799866-4.4929962-1.2170105-6.6689911-5.4559937-8.6809998
						c-0.5498962-0.3975525-1.0335388-0.8795013-1.4330139-1.4279938c-0.6850281-0.4221497-1.4661865-0.6630402-2.269989-0.6999969
						c-1.9079895-0.3050079-2.4710083-1.6950073-3.8450012-2.4369965c-2.0230103-1.0130005-3.7609863-2.1569977-3.5289917-4.1999969
						c0.6570129-5.8160019,18.5-16.1409988,11.92099-17.1159973c-3.95401,0.1620026,7.7269897-5.6230011,3.8519897-6.4680023
						c-5.1716614-1.2781754-10.5147095-1.7194366-15.8259888-1.3069992
						c-3.7369995,0.3710022,17.2000122-6.7699966,14.6359863-8.7129974l-4.1210022,0.2399979l-3.7120056-0.6699982
						c-1.9196167-0.5588226-3.9398804-0.6814804-5.9129944-0.3590012c-1.9267273,0.290062-3.8915405,0.2007141-5.7839966-0.2630005
						c6.8519897-1.2740021-0.2999878-7.2440033,6.9949951-8.3740005c-5.7659912-0.7519989-7.5079956,3.1470032-11.2409973,4.3909988
						c-1.1229858,0.3730011-2.4559937,1.0999985-3.6730042,1.5619965c-0.9465332-0.8928604-1.6220398-2.0345535-1.9490051-3.2939987
						c-0.243988-1.6710052,1.0140076-2.7850037,2.4869995-3.8170013c1-0.7460022,1.3720093-1.9530029,2.7839966-2.3880005
						c0.616333-0.118248,1.1916199-0.3938293,1.6700134-0.8000031c0.2738953-0.4867249,0.6175232-0.9307632,1.019989-1.3180008
						c3.0880127-2.0759964,5.8460083-4.2419968,3.7630005-7.7109985c-0.2998657-0.1244507-0.6091614-0.2247696-0.9249878-0.2999954
						c0.04599-0.0460052,0.0910034-0.0999985,0.1350098-0.1460037c3.368988-2.5369949,7.5639954-1.2859955,11.3139954-2.0859985
						c-0.3510132-2.5999985-2.4700012-3.3600006-5.4849854-3.512001c-0.4618835-0.0101547-0.9239807,0.0062027-1.3840027,0.0490036
						c-1.8590088,0.1339951-3.8710022,0.2669983-2.9559937-2.6110001c0.2619934-0.8190002-1.07901-0.9000015-1.7340088-0.7000046
						c-5.2999878,1.663002-11.1000061,1.2440033-16.3619995,3.0210037c-0.560791,0.0608444-1.0965881,0.2646866-1.5559998,0.5919952
						l-4.6170044,0.2600021c-1.4775391-1.0539627-3.4764404-0.9938507-4.8880005,0.1469955
						c-3.3980408-0.7390213-6.8593445-1.1492462-10.3359985-1.2249985l0.2630005-0.4589996
						c1.0626526-0.0719986,2.127655-0.145668,3.1950073-0.2210007c-1.1477356-0.6337738-2.3817139-1.0969696-3.6629944-1.375
						c4.9899902-2.1729965,12.17099-5.2890015,10.6090088-6.4729996c-1.3740234,0.081337-2.7476807,0.1606674-4.1210022,0.237999
						l-3.7130127-0.6710014c-1.9198608-0.5574913-3.9398804-0.6797943-5.9129944-0.3580017
						c-1.9274292,0.2890625-3.8927307,0.1997299-5.7860107-0.2630005c6.8529968-1.2739983-0.2999878-7.2439995,7-8.3740005
						c-5.7650146-0.7529984-7.5079956,3.1459999-11.2409973,4.3899994c-2.2550049,0.75-5.3519897,2.9210014-6.6650085,1.4820023
						s-5.7869873-3.5540009-0.9289856-6.3170013c2.1340027-1.2129974,0.9549866-1.9309998-1.0650024-2.5649986
						c-1.7283936-0.7024651-3.3795166-1.58181-4.927002-2.6240005c-1.0422974-1.5051003-2.637085-2.537384-4.4370117-2.8720055
						l0.053009,2.8689995l-0.1659851,0.0880013c-2.2219849-1.7910004-8.5320129-1.0300026-6.651001-5.382l2.6879883-1.9260025
						c1.3756714-0.1126709,2.6800232-0.6592674,3.7250061-1.560997c1.3188782,0.5032997,2.7920532,0.4035301,4.0310059-0.2730026
						l4.4140015-0.6069984c1.8659973,0.2709999,1.0849915-0.4389992,0.3299866-1.1469994
						c-0.8940125-0.8409996-1.75-1.6809998,1.8500061-0.9000015c1.7554626,0.3075294,3.5559387-0.1936646,4.8999939-1.3639984
						c2.5499878-0.6290016,6.9599915,0.3509979,7.2170105-2.2000008c0.2999878-3.0249996-43.9339905,9.730999-47.0820007,9.7599983
						c-1.6584167,0.1383705-3.3136597-0.3011436-4.6849976-1.2439995c-0.0226746-0.0244408-0.0316467-0.0585632-0.0239868-0.0909996
						c0.7869873-2.6139984-2.9379883-1.6699982-4.2179871-2.6539993c-2.3999939-2.1259995-5.7709961-1.2550011-8.9590149-1.026001
						c0.0253296-1.0793304,0.0496521-2.1576653,0.072998-3.2350006c-2.4190063,0.1120033-4.8439941,0.1410027-7.2569885,0.3570023
						c-4.7229919,0.4199982-5.9679871-1.4850006-5.8789978-4.3710003c-4.94104-1.6630001-10.2280579-1.0930004-15.5230408-0.4820004
						c-13.3000183,1.3400002-47.2260132,11.4350014-60.2619934,10.2470016
						c-1.8000183-0.163002-3.1530151,1.4139977-4.6380005,2.7469978c-1.6173401-0.1386681-3.2363281-0.2680016-4.8569946-0.3880005
						c-1.5190125-1.8520012-3.3560181-4.2779999-3.8609924-4.3069992c0.0769958-0.4280014,0.1409912-0.7550011,0.1900024-1
						c-0.322998,1.2539978-1.2210083,4.125-2.6300049,4.9119987l-0.2870178-0.0130005
						c-8.9189911-0.4169998-17.7159882-1.5049973-26.5679932-2.2899971c-1.86026-0.0333481-3.7160034-0.1950684-5.5540009-0.4840012
						c-2.536087-0.451313-5.120163-0.5703163-7.6869965-0.3540001l-32.7950134-5.9709988
						c-16.5650024-2.0760002-32.7580109-1.6100006-47.9140015,5.9110012
						c-0.7120056,0.5599976-1.4150085,1.1169968-2.1459961,1.6919975c-4.2799988,2.0279999-7.8230133,4.439003-8.6230011,8.2680016
						c-2.7180023,1.1119995-4.0650024,2.7940025-4.2820053,4.9470024c-6.5449982,5.993-15.6180038,5.9179993-18.1860046,13.3239975
						c-4.3999939,3.6650009-9.246994,7.0790024-12.621994,11.3150024c0.6790009,0.0189972,1.3999939,0,2.1119995-0.0100021
						c3.6819992-0.0739975,7.3639984-0.1489944,5.9829941,4.4160004c-2.8314514,1.2146454-5.551445,2.6741867-8.1289978,4.3619995
						l-0.1940002,0.0130005c-0.6999969,0.3410034-1.4209976,0.6640015-2.0999985,1.0330048
						c-3.2269974,1.7480011-4.538002,3.2319946-4.0230026,4.8479996l-0.1289978,0.1800003
						c-1.1539993-0.0149994-1.8779984-0.0579987-2.3059998-0.0999985c0.5,0.1940002,1.0370026,0.6920013,0.1330032,1.8180008
						c-0.038002,0,1.8379974,0.2809982,4.435997,0.6669998c0.0866699,0.0666656,0.1763306,0.1366653,0.2689972,0.2099991
						c-1.1649933,2-2.8919983,3.9520035-3.9419937,4.2050018c2.447998,1.8559952-14.2580032,3.1839905-11.3330002,3.1279907
						c0.6897049,0.0417252,1.3818207-0.0162048,2.0550003-0.1719971c0.661293,0.1408234,1.3372269,0.2009277,2.0130005,0.1790009
						c3.2139969,3.1650009,9.7409973,1.0559998,13.2419968,3.7649994c-0.8799973,0.487999-2.5279999,1.0319977-2.5079956,1.4550018
						c0.1999969,4.4110031-4.4120026,5.3779984-9.5,6.2220001c3.0629959,2.6800003,3.6149979,5.4469986,3.9729996,8.2649994
						l4.4549942,2.6999969c0.3420639,0.0312881,0.6799088,0.09832,1.0080032,0.1999969
						c4.0449982,1.7659988-2.6819992,4.288002,0.4250031,6.6449966c1.0080185,0.7057495,1.7957077,1.6823883,2.2719955,2.8170013
						c-0.2083893,0.0517883-0.4137115,0.1152191-0.6149979,0.1900024c-0.5116425-0.0650024-1.0304565-0.0460968-1.5360031,0.0559998
						c-2.1809998,0.2350006-4.5999985-0.3730011-6.3610001,1.3999939c2.6100006,0.3529968,5.0289993,1.4000092,7.8440018,1.0120087
						l0.2060013,0.0279999c-0.1988983,0.2637787-0.424057,0.5066833-0.6720047,0.7249908
						c-0.3232956,1.340683-1.2134247,2.4746094-2.4389954,3.1070099c-0.1060028,0.4799957-0.1820068,0.9570007-0.3000031,1.4499969
						c-0.7083282-0.3300781-1.5244827-0.3391876-2.2399979-0.0250092c-2.8769989,2.4230042,5.9799957,7.7369995,5.9799957,7.7369995
						s-12.9560013,2.2140045-5.9799957,4.7440033c0.9309998,0.3370056,11.7339935,2.0839996,12.6899948,2.3889923
						c1.7690048-0.1210022,3.3680038,1.1069946,4.9720001,2.3350067c1.7120056,1.3110046,3.4319992,2.621994,5.375,2.2929993
						c0.5910034,0.1869965,1.0429993,0.3410034,1.3790054,0.4620056c-1.2949982-0.7089996-3.4500046-2.4620056-1.3790054-5.0899963
						c0.0360031-0.0449982,0.0719986-0.0899963,0.1080017-0.1340027c1.8820038,1.5059967,3.9110031,2.8999939,5.8370056,4.3739929
						c2.1729965,5.8829956-40.0999985,5.1779938-35.0050049,9.5099945c0.2320023,1.7599945-5.3209991-0.6589966-3.2549973,0
						c0.1149979,0.4889984,11.5930023-2.1239929,11.8150024-1.6840057
						c-2.3860016,2.0319977-18.4640045-0.2839966-20.9520035,1.6840057c-5.3810005,4.2579956,35.8530045,8.4689941,42.8300018,11
						c0.9329987,0.3379974,3.6100006-1.072998,4.5670013-0.772995c1.6080017-0.0469971,8.1520004,1.8630066,9.7210007,2.2579956
						c1.8799973,0.5059967,10.9820023,3.0549927,12.9049911,2.822998c2.0480042,0.677002,0.0100098-0.0339966,2.1460114,0
						c3.7339935,0.1799927,4.9759979-3.5440063,7.4919891-6.6300049c1.7430115-2.2129974,6.3249969-1.7660065,8.677002-2.2079926
						c10.6730042-2.0059967,12.0900116,0.4530029,22.7580109,0c5.6829987,2.5090027,18.3509979,2.7570038,24.2740021,2.2079926
						c7.7579956-0.7189941,18.2330017,3.7769928,25.1950073,0c3.3999939-1.845993,2.9490051-4.9409943,5.5540009-4.0709991
						c7.6799927,2.5670013,7.2550049-3.1060028,14.3569946-4.6060028
						c-17.451004-0.2559967-20.4689941,5.3419952-14.3569946,4.6060028c4.3589935-0.2550049,10-1.8600006,14.3569946-2.1199951
						c0-0.5169983-13.9720001,2.6360016-13.9900055,2.1199951c3.8739929-1.845993,31.065979,2.0899963,35.3659973,1.8630066
						c10.6999817-0.5630035,21.4060059-1.1360016,32.1000061-1.8630066
						c4.2080078-0.2850037,8.6340027-0.0919952,12.4109802-2.2149963l40.9560242-2.3910065
						c1.4389954,3.1719971,4.5690002,2.8289948,7.7000122,2.4860077c1.1382751-0.1570282,2.2872009-0.2239075,3.4360046-0.1999969
						c0.7237549,0.0280151,1.4485779-0.0000763,2.1679993-0.0839996c15.7489929-1.3730011,31.5409851-1,47.3080139-3.8670044
						c3.3707275-0.4437714,6.784668-0.4501648,10.1570129-0.0189972c2.9952698,0.3328705,6.0144043,0.3961334,9.0209961,0.1889954
						c5.7869873-0.5700073,11.447998-1.1329956,16.1700134-4.1439972c-1.9413147,0.1053314-3.8822937,0.2093353-5.822998,0.3119965
						l-0.1610107-3.0460052c1.5666809-0.1999969,3.1333618-0.4029999,4.7000122-0.6089935l11.6459961,0.5160065
						c1.8464966,0.454422,3.7993469,0.0311432,5.2919922-1.1470032l6.2000122-0.3240051
						c0.6319885,0.2986298,1.3252258,0.44487,2.0239868,0.427002c3.7305298,0.5598297,7.506134,0.7607574,11.2749939,0.6000061
						c3.5767517-0.1419983,7.1590576,0.0252991,10.7070007,0.5c0.8880005,0.1450043,2.6669922-0.1670074,2.2739868-1.1130066
						c-1.7430115-4.1950073,3.0190125-3.326004,5.6440125-3.7510071c4.0090027-0.647995,6.7909851-1.8899994,7.111969-5.071991
						c-1.8137512-0.0801239-3.6310425-0.0048523-5.4319763,0.2249908 M247.901535,42.3014793
						c-15.0130005-0.0229988-10.4369965-0.1719971,1.4609985-0.310997L247.901535,42.3014793z M270.2155151,42.3014793
						c-0.2634888-0.0998268-0.4949951-0.2691574-0.6699829-0.4899979l1.9239807-0.0100021
						C271.0802612,42.0327454,270.6571045,42.2014656,270.2155151,42.3014793 M309.752533,42.3834801
						c-7.9668274,0.3171692-15.9459229,0.1016884-23.8840027-0.6450005
						c2.2579956-0.0050011,4.4609985-0.0079994,6.5780029-0.0079994
						C308.3755188,41.7304802,319.2925415,41.89048,309.752533,42.3834801"/>
					<path id="パス_4967-2_00000034057605498593969200000015961059353706479795_" class="st2" d="M286.444519,34.9324799
						L286.444519,34.9324799l0.0050049-0.0239983l-0.0050049,0.0200005"/>
					<path id="パス_4968-2_00000113334592067781855960000001247666022164474795_" class="st2" d="M87.6595383,90.9364853
						C87.1265411,90.7504807,86.6395416,90.8444824,87.6595383,90.9364853"/>
					<path id="パス_4969-2_00000116212863956924243880000015316578587835691151_" class="st2" d="M115.9145355,160.9434814
						l0.0190048,0.0059967l-0.0190048-0.0070038V160.9434814z"/>
					<path id="パス_4970-2_00000014632194879484517060000012244030335843844020_" class="st2" d="M310.200531,182.2364807
						l5.3059998-2.9250031c-6.4519958,0.4109955-12.8259888,1.1730042-19.2359924,1.9519958
						c-1.6740112,0.2050018-3.3450012,0.4880066-5.0180054,0.8049927c5.9159851,0.0769958,12.3639832,0.1329956,18.946991,0.1670074
						l-1.1940002,0.6580048c3.9049377,0.5463409,7.8440857,0.8116913,11.7870178,0.7940063
						c6.822113-0.1116791,13.6338806-0.5763092,20.4079895-1.3919983l0.6520081-0.0679932
						c-9.6889954,0.0610046-20.8520203,0.0639954-31.6520081,0.0090027"/>
					<path id="パス_4971-2_00000105396478378981525450000003469138502794658231_" class="st2" d="M367.9405518,181.1754761
						L367.9405518,181.1754761c-8.6140137-0.7299957-17.2890015,0.1430054-26.0889893,1.052002
						c19.3710022-0.1199951,32.8890076-0.4730072,26.0889893-1.0509949"/>
					<path id="パス_4972-2_00000077303932115405075270000009984385702892459404_" class="st2" d="M115.9335403,160.9494781
						c0.2835236,0.1504517,0.5835266,0.2675781,0.8939972,0.348999
						C116.8875427,161.2984772,116.6505432,161.1834717,115.9335403,160.9494781"/>
				</g>
			</g>
		</g>
		<g id="グループ_282_00000048478243174371173910000006546326704387920007_" transform="translate(12 -5)">
			<g class="st0">
				<path class="st1" d="M238.347702,7184.5795898c-0.6601562-1.9804688-1.1000977-3.1904297-1.1000977-9.4599609v-12.1005859
					c0-7.1494141-2.4199219-9.7900391-7.9199219-9.7900391h-4.1801758v31.3505859h-12.1000977v-77h18.2602539
					c12.5400391,0,17.9301758,5.8300781,17.9301758,17.7099609v6.0498047c0,7.9199219-2.5302734,12.9804688-7.9199219,15.5097656
					v0.2207031c6.0498047,2.5292969,8.0297852,8.25,8.0297852,16.2792969v11.8808594
					c0,3.7392578,0.1098633,6.4892578,1.3198242,9.3496094H238.347702z M225.1475067,7118.5795898v23.6494141h4.7299805
					c4.5102539,0,7.2602539-1.9794922,7.2602539-8.1396484v-7.5898438c0-5.5-1.8701172-7.9199219-6.1601562-7.9199219H225.1475067z"
					/>
				<path class="st1" d="M268.2666626,7140.0297852h16.6103516v11h-16.6103516v22.5498047h20.9003906v11h-33.0004883v-77h33.0004883
					v11h-20.9003906V7140.0297852z"/>
				<path class="st1" d="M295.5464478,7107.5795898h12.1000977v66h19.9101562v11h-32.0102539V7107.5795898z"/>
				<path class="st1" d="M370.8950806,7184.5795898h-12.2099609l-2.0898438-13.9697266h-14.8500977l-2.0898438,13.9697266
					h-11.1103516l12.3203125-77h17.7099609L370.8950806,7184.5795898z M343.2852173,7160.159668h11.6601562l-5.7202148-38.9404297
					h-0.2202148L343.2852173,7160.159668z"/>
				<path class="st1" d="M367.7051392,7107.5795898h37.4003906v11h-12.6499023v66h-12.1000977v-66h-12.6503906V7107.5795898z"/>
				<path class="st1" d="M421.3843384,7140.0297852h16.6103516v11h-16.6103516v22.5498047h20.9003906v11h-33.0004883v-77h33.0004883
					v11h-20.9003906V7140.0297852z"/>
				<path class="st1" d="M448.6636353,7107.5795898h19.1401367c12.1000977,0,18.0400391,6.7099609,18.0400391,19.0292969v38.9404297
					c0,12.3203125-5.9399414,19.0302734-18.0400391,19.0302734h-19.1401367V7107.5795898z M460.7637329,7118.5795898v55h6.8203125
					c3.8496094,0,6.159668-1.9804688,6.159668-7.4804688v-40.0400391c0-5.5-2.3100586-7.4794922-6.159668-7.4794922H460.7637329z"/>
				<path class="st1" d="M508.3921509,7107.5795898h12.1000977v77h-12.1000977V7107.5795898z"/>
				<path class="st1" d="M524.6709595,7107.5795898h37.4003906v11h-12.6499023v66h-12.1000977v-66h-12.6503906V7107.5795898z"/>
				<path class="st1" d="M578.3496704,7140.0297852h16.6103516v11h-16.6103516v22.5498047h20.9003906v11h-33.0004883v-77h33.0004883
					v11h-20.9003906V7140.0297852z"/>
				<path class="st1" d="M631.1494751,7162.2495117h0.2197266l8.1401367-54.6699219h16.8300781v77h-11.4399414v-55.2207031
					h-0.2202148l-8.1401367,55.2207031h-11.4399414l-8.7998047-54.4501953h-0.2202148v54.4501953H605.519104v-77h16.8300781
					L631.1494751,7162.2495117z"/>
				<path class="st1" d="M680.3179321,7106.6987305c11.7700195,0,17.8198242,7.0400391,17.8198242,19.3603516v2.4199219h-11.4399414
					v-3.1894531c0-5.5-2.199707-7.5908203-6.0498047-7.5908203s-6.050293,2.0908203-6.050293,7.5908203
					c0,5.609375,2.4199219,9.7900391,10.340332,16.7197266c10.1201172,8.9101562,13.3100586,15.2900391,13.3100586,24.0898438
					c0,12.3203125-6.1601562,19.3603516-18.0400391,19.3603516c-11.8803711,0-18.0405273-7.0400391-18.0405273-19.3603516
					v-4.7294922h11.4404297v5.5c0,5.5,2.4199219,7.4794922,6.2700195,7.4794922s6.2700195-1.9794922,6.2700195-7.4794922
					c0-5.6103516-2.4199219-9.7900391-10.340332-16.7207031c-10.1201172-8.9091797-13.3100586-15.2900391-13.3100586-24.0898438
					C662.4976196,7113.7387695,668.5479126,7106.6987305,680.3179321,7106.6987305z"/>
			</g>
		</g>
	</g>
</g>
<g id="レイヤー_3">
</g>
</svg>
